<svg height="100%" style="fill-rule:nonzero;clip-rule:evenodd;stroke-linecap:round;stroke-linejoin:round;" xmlns:xlink="http://www.w3.org/1999/xlink" xmlns="http://www.w3.org/2000/svg" xml:space="preserve" width="100%" xmlns:vectornator="http://vectornator.io" version="1.1" viewBox="0 0 1366 1024">
    <defs />
    <g id="Layer 1" vectornator:layerName="Layer 1">
        <path stroke="#13b9e1" stroke-width="6.60137" d="M206.5+348.073C206.5+298.367+246.794+258.073+296.5+258.073C346.206+258.073+386.5+298.367+386.5+348.073C386.5+397.779+346.206+438.073+296.5+438.073C246.794+438.073+206.5+397.779+206.5+348.073Z" fill="#13b9e1" stroke-linecap="round" opacity="1" stroke-linejoin="round" />
        <path stroke="#13b9e1" stroke-width="6.60137" d="M178.5+775C178.5+708.726+232.226+655+298.5+655C364.774+655+418.5+708.726+418.5+775C418.5+841.274+364.774+895+298.5+895C232.226+895+178.5+841.274+178.5+775Z" fill="#13b9e1" stroke-linecap="round" opacity="1" stroke-linejoin="round" />
        <path stroke="#13b9e1" stroke-width="6.60137" d="M691+166C691+99.7258+744.726+46+811+46C877.274+46+931+99.7258+931+166C931+232.274+877.274+286+811+286C744.726+286+691+232.274+691+166Z" fill="#13b9e1" stroke-linecap="round" opacity="1" stroke-linejoin="round" />
        <path stroke="#13b9e1" stroke-width="6.60137" d="M715+870.5C715+804.226+768.726+750.5+835+750.5C901.274+750.5+955+804.226+955+870.5C955+936.774+901.274+990.5+835+990.5C768.726+990.5+715+936.774+715+870.5Z" fill="#13b9e1" stroke-linecap="round" opacity="1" stroke-linejoin="round" />
        <path stroke="#13b9e1" stroke-width="56.603" d="M968+528.5C968+462.226+1021.73+408.5+1088+408.5C1154.27+408.5+1208+462.226+1208+528.5C1208+594.774+1154.27+648.5+1088+648.5C1021.73+648.5+968+594.774+968+528.5Z" fill="none" stroke-linecap="round" opacity="1" stroke-linejoin="round" />
        <path stroke="#13b9e1" stroke-width="23.7732" d="M563+512.077C563+455.425+608.903+409.5+665.527+409.5C722.151+409.5+768.054+455.425+768.054+512.077C768.054+568.728+722.151+614.653+665.527+614.653C608.903+614.653+563+568.728+563+512.077Z" fill="#13b9e1" stroke-linecap="round" opacity="1" stroke-linejoin="round" />
        <path stroke="#13b9e1" stroke-width="6.60137" d="M385+700L579.5+582" fill="#13b9e1" stroke-linecap="round" opacity="1" stroke-linejoin="round" />
        <path stroke="#13b9e1" stroke-width="40" d="M569+456.5L371.5+369" fill="#13b9e1" stroke-linecap="round" opacity="1" stroke-linejoin="round" />
        <path stroke="#13b9e1" stroke-width="6.60137" d="M695+415L768.5+262" fill="#13b9e1" stroke-linecap="round" opacity="1" stroke-linejoin="round" />
        <path stroke="#13b9e1" stroke-width="6.60137" d="M953+523L770+517" fill="#13b9e1" stroke-linecap="round" opacity="1" stroke-linejoin="round" />
        <path stroke="#13b9e1" stroke-width="40" d="M788+769L711+606" fill="#13b9e1" stroke-linecap="round" opacity="1" stroke-linejoin="round" />
    </g>
</svg>